<svg id="hero" xmlns="http://www.w3.org/2000/svg" viewBox="0 0 1209.4 1029.7">
  <style>
    .st1{fill:#58595b}.st2{fill:#fff}.st3{fill:#e17539}.st5{fill:#929496}.st8{fill:#d0d2d3}.st10{fill:#28b0af}.st11{fill:#404041}
  </style>
  <path opacity=".29" fill="#bcbdbf" d="M736.3 1029.7L0 604.6l473.1-282.4 736.3 425.1z"/>
  <path class="st1" d="M712.4 689c-4.8 0-9.5-1.3-13.9-3.8l-165.8-96.5c-8.5-5-13.8-14.2-13.8-24.1v-187h11.3v187c0 5.9 3.1 11.3 8.2 14.3l165.8 96.5c5.1 3 11.2 3 16.4 0 5.1-3 8.2-8.3 8.2-14.3V499.8h11.3v161.3c0 10.1-5.2 19.1-13.8 24.1-4.4 2.5-9.1 3.8-13.9 3.8z"/>
  <path class="st1" d="M890 590.2c-4.8 0-9.6-1.3-13.9-3.8l-166.9-96.5c-8.6-5-13.9-14.2-13.9-24.1v-187h11.4v187c0 5.9 3.2 11.3 8.2 14.3l166.8 96.5c5.2 3 11.3 3 16.5 0 5.2-3 8.2-8.3 8.2-14.3V401h11.4v161.3c0 10.1-5.2 19.1-13.9 24.1-4.3 2.6-9.1 3.8-13.9 3.8z"/>
  <path class="st1" d="M912.2 408.1c-1 0-2-.3-2.9-.8L698.2 285.2c-1.2-.7-2.2-1.9-2.6-3.2L616 24.3c-.7-2.2.1-4.7 1.9-6.1 1.8-1.5 4.4-1.7 6.4-.5l211.2 122.1c1.2.7 2.2 1.9 2.6 3.2l79.6 257.7c.7 2.2-.1 4.7-1.9 6.1-1.1.9-2.4 1.3-3.6 1.3zM705.8 276.5l196.7 113.7-74.7-241.6L631.1 34.8l74.7 241.7z"/>
  <path class="st2" d="M735.4 500.7L524.2 378.6l81.1-346 211.1 122.1z"/>
  <path class="st2" d="M713.2 241.4l-66-37.1 19.5-81 66 37.1z"/>
  <path class="st3" d="M713.2 244.3c-.5 0-1-.1-1.4-.4l-66-37.1c-1.1-.6-1.7-1.9-1.4-3.1l19.5-81c.2-.9.8-1.6 1.6-1.9.8-.4 1.8-.3 2.5.1l66 37.1c1.1.6 1.7 1.9 1.4 3.1l-19.5 81c-.2.9-.8 1.6-1.6 1.9-.4.2-.8.3-1.1.3zm-62.8-41.4l60.8 34.2 18.1-75.2-60.8-34.2-18.1 75.2z"/>
  <path class="st3" d="M819.3 149.8l-2.2-1.3 15.4-24.2-211.2-122-.1.2c-2.3-1.5-5.1-2.4-8-2.4-8 0-14.5 6.5-14.5 14.5 0 5.4 3 10.1 7.4 12.5-1-.2-2.1 0-3.1.4-1.7.7-2.9 2.2-3.3 3.9l-81.1 346c-.6 2.4.5 5 2.7 6.2l211.2 122.1c.9.5 1.9.8 2.9.8.8 0 1.5-.2 2.3-.5 1.7-.7 2.9-2.2 3.3-3.9L822 156c.5-2.4-.5-4.9-2.7-6.2zm-87.7 342.1L530.7 375.8 609 41.4l200.9 116.2-78.3 334.3z"/>
  <circle class="st1" cx="826.7" cy="137.5" r="14.5"/>
  <path class="st2" d="M607.8 225.7l139.4 76.8"/>
  <path transform="rotate(-61.169 677.507 264.142)" class="st3" d="M674.6 184.5h5.7v159.2h-5.7z"/>
  <path class="st2" d="M596.4 270.3l139.4 76.8"/>
  <path transform="rotate(-61.164 666.144 308.713)" class="st3" d="M663.3 229.1h5.7v159.2h-5.7z"/>
  <g>
    <path class="st2" d="M585 314.9l139.4 76.8"/>
    <path transform="rotate(-61.164 654.76 353.304)" class="st3" d="M651.9 273.7h5.7v159.2h-5.7z"/>
  </g>
  <g>
    <path class="st2" d="M573.6 359.5l139.5 76.8"/>
    <path transform="rotate(-61.169 643.357 397.911)" class="st3" d="M640.5 318.3h5.7v159.2h-5.7z"/>
  </g>
  <g>
    <path class="st2" d="M429.3 232.3c.2-1.3-.7-2.6-2.1-2.8l-19.5-2.9h-.2c-.8-.1-1.5-.3-2.3-.4-7.5-1.1-11.7-4.2-13.2-5.5-.4-.4-.6-1-.4-1.5.6-1.9 2.7-6.2 8.5-8.7 7.5-3.3 3.6-7.8 3.6-7.8L376.3 214l-13.4 8.1 8.5 17.3s18.3 3.3 33.1 3.5l12.5 1.9c1.3.2 2.6-.7 2.8-2.1.1-.5 0-1-.2-1.4l2.4.4c1.3.2 2.6-.7 2.8-2.1.1-.5 0-.9-.2-1.3 1.3.2 2.6-.7 2.8-2.1.1-.6-.1-1.2-.4-1.7 1.1-.2 2.1-1 2.3-2.2z"/>
    <path d="M253.4 114.5l-5 22.2s-1.2 7.9 11.3 12.6c12.5 4.7 27.3 6.1 27.3 6.1l4.6-29.2-38.2-11.7z" fill="#f1f1f2"/>
    <path class="st5" d="M273.3 559.4l-.6 17.6c-.1 4.8 3.7 8.7 8.4 8.7 2.2 0 4.4.9 6 2.5l9.9 10c5.3 5.4 12.6 8.5 20.2 8.5l22.4.1c8.6.1 12.5-10.8 5.8-16.2l-18.6-15.1c-3.2-2.6-6-5.5-8.4-8.8l-7.7-13.1-37.4 5.8zM206.8 583l-2.1 24.6c-.3 4.7 3.4 8.7 8.1 8.9 2.2.1 4.3 1 5.9 2.7l9.5 10.2c5.1 5.5 12.3 8.7 19.8 9l22.2.7c8.6.3 12.7-10.4 6.2-15.9l-18.1-15.5c-3.1-2.6-5.8-5.6-8.1-8.9l-7.3-13.2-36.1-2.6z"/>
    <path d="M209.7 313.2l-4.1 272c-.1 7.7 4.7 14.7 12 16.9 3.5 1.1 7.4 1.8 10.9 1.2 10-1.5 16.9-9.1 17.1-10.9l18.5-145.7 8.2 114c.5 6.8 5.8 12.3 12.5 13l7.6.9c7 .8 13.9-1.5 19-6.3 2.8-2.6 4.4-6.3 4.4-10.1l2-252.6-108.1 7.6z" fill="#365aa4"/>
    <path class="st2" d="M264.7 129.6l4.8 2.6c17.2 9.1 38.2-1.2 41.5-20.3l4.1-23.6c3.3-18.8-6-37.5-22.9-46.3l-2.1-1.1c-22.7-11.8-50.3 1.8-54.6 27l-.3 1.6c-4.2 24.3 7.7 48.5 29.5 60.1z"/>
    <path class="st1" d="M251.2 119.9l-.2-16.4c0-2.8-1.2-5.4-3.2-7.4-3.5-3.4-5.6-8.2-5.6-13.1l-.1-4.5c-.1-4.3 3.4-7.8 7.7-7.9 4.3-.1 7.8 3.4 7.9 7.7l.1 6.3 2.2 4.5c1.8 3.7 6.8 4.1 9.3.8l8-9.6c3.6-4.3 8.9-6.8 14.5-6.8l24.5-.1s-.5-34.9-40.2-39.1-48 42.2-39.2 62.9 14.3 22.7 14.3 22.7z"/>
    <path d="M363 217.8l-15.3 7c-9.6 4.4-20.8-1-23.3-11.2-3.2-13-6.7-30.3-9.2-43-2-10.1-10.3-17.8-20.6-18.8v.1l-.3-.3-10.5-.6c-9.1-.6-17.8-3.8-25.1-9.4l-6.7-5.1c-5.8-2.1-9.9-.5-16.4 5-6.4 5.4-18.2 14.7-24.7 22.4-7.4 8.5-14.8 19.5-14.9 29.1v.8c-.5 32.2 1.8 64.3 6.9 96.1l4.9 30.2c.5 2.8 1.5 5.4 3.1 7.7l16.6 44.6c1.3 3.6 6.1 4.4 8.5 1.5l13.6-16.1-3.3-18.8c22 .8 44-4.4 63.4-15.4l.3-.2c6.2-3.5 10-10.2 9.7-17.3l-2.3-39.2c6.4.3 14.3.2 19.4-1.1 9.5-2.5 40.1-22.7 40.1-22.7L363 217.8z" fill="#70b4e2"/>
  </g>
  <g>
    <path class="st8" d="M759.2 403.9l-14.8-11-30.8-16.4s-5.1 4.8 3.3 9.5c6.5 3.6 8.4 9 8.9 11.2.1.5-.6 1.6-1.2 2.4l-28.5.3c-1.9 0-3.4 1.6-3.4 3.5 0 .9.4 1.8 1 2.4h-.1c-1.9 0-3.4 1.6-3.4 3.5 0 1.3.8 2.4 1.9 3v.4c-.1 1.3.5 2.4 1.4 3.3.6 1.2 1.7 2 3.1 1.9h.5c.8.3 1.6.5 2.5.7-.1.3-.2.7-.2 1.1 0 1.9 1.6 3.4 3.5 3.4l27.4-.3c.6 0 1.2-.2 1.7-.5 9.2.7 15.4 1 15.4 1l11.8-19.4z"/>
    <path class="st5" d="M865.5 771.1l.2 18.2c0 4.9-4 8.9-8.9 8.8-2.3 0-4.6.8-6.2 2.4L840 810.6c-5.7 5.4-13.2 8.4-21.1 8.3l-23.1-.4c-8.9-.2-12.7-11.5-5.6-16.9l19.6-15.2c3.3-2.6 6.3-5.5 8.9-8.9L828 764l37.5 7.1M940.2 797.1l1.5 25.5c.2 4.9-3.7 8.9-8.6 9-2.3 0-4.5.9-6.1 2.6l-10.1 10.2c-5.5 5.5-12.9 8.7-20.7 8.7l-22.9.2c-8.8.1-12.8-11-6-16.6l19.1-15.5c3.2-2.6 6.1-5.7 8.6-9l7.9-13.4 37.3-1.7"/>
    <path class="st1" d="M823.2 524.9l3.8 234.6c.1 8.7 6.2 16.2 14.7 18.1l4.9 1.1c11 2.4 21.7-5.5 22.5-16.8l12.1-135.2 20.9 172c1.1 8.6 9.6 12.4 18.3 13.3 10.8 1.1 20.3-7.3 20.5-18.2l4.6-275.6-122.3 6.7z"/>
    <path fill="#bcbdbf" d="M849.3 261l-1.7 43.9 41.9 5.6 2.3-58.8z"/>
    <path class="st8" d="M879.1 276.7l-5.7 2.1c-20.2 7.6-42-6.7-42.9-28.3l-1.2-26.5c-.9-21.2 11.9-40.5 31.8-47.8l2.4-.9c26.6-9.8 55.1 9.2 56.4 37.5l.1 1.8c1.2 27.4-15.3 52.5-40.9 62.1z"/>
    <path class="st10" d="M986.9 436.6l-18-87.3c-3.4-16.3-12.6-30.8-26-40.7l-31.4-21.5c-6.9-5.1-16.3-4.7-23.2.5-4.5 3.5-10 4.8-15 6.1-6.7 1.8-15 2-20.9-.3-4.5-1.7-4-5.4-5-10.1l-2.5-1.8c-2.2-1.7-5.2-1.9-7.7-.7l-3.5 1.7c-8.4 4.2-13.8 12.6-14.1 22l-2.9 89.4-67.5-2.8c-4.1-.3-7.4 3.3-6.8 7.3l2.5 20c.4 3 2.8 5.3 5.8 5.6l66.5 8.4-1.7 85.5c-.1 3.8 15.9 14.8 22.9 17.4 10.6 4 27 2.5 27 2.5l28.2-2.4 6 12.6c1.8 3.9 6.9 4.9 10.1 2.1l55-48c18.8-16.2 27.2-41.3 22.2-65.5z"/>
    <path class="st1" d="M885.5 263.8c-.1 4.7 5.1 7.7 9 5 18.4-12.9 28.1-30.2 27-54.2l-.1-1.8c-1.3-28.8-30.1-48-57.1-38l-2.5.9c-12.7 4.7-22.6 14.2-28 26l16.4.6c12 .5 21.3 10.5 20.8 22.5l-.2 6 7.3.4 7.1-6.8c2-1.7 4.9-1.5 6.7.4l1 1.1c3.3 3.6 3 9.2-.6 12.5l-6.5 5.7-.3 19.7z"/>
    <path class="st8" d="M889.6 562.4c10.8-6.8 18.2-12 18.2-12l-2.3-23.9-19.5.2-32.1 6.2s-1.2 7.3 8.9 5.9c7.8-1.1 8.5 2 10.4 3.5.3.3.5 1.3.5 2.2l-5.8 4.5-9.9 2.5c-1.6.5-2.5 2.1-2 3.7l.4 1.2c.2.6.6 1.1 1 1.5l-1.3.4c-1.6.5-2.5 2.1-2 3.7l.4 1.2c.4 1.2 1.5 2 2.7 2.1-.1.5-.2 1 0 1.5l.4 1.2c.5 1.6 2.1 2.5 3.7 2l.7-.2c-.1.4-.1.9 0 1.4l.4 1.2c.5 1.6 2.1 2.5 3.7 2l12-3.4c.1 0 .2-.1.3-.2.4-.1.7-.3 1.1-.5l10.1-7.9z"/>
    <path class="st10" d="M941.4 403.1l6.4 30.8c3.5 17.1-2 34.8-14.6 46.8l-41.6 39.8c-2 1.9-2.6 4.9-1.4 7.4l9.5 20.1c1.8 3.9 6.9 4.9 10.1 2.1l55-48c18.7-16.3 27.1-41.4 22.1-65.6l-18-87.3"/>
  </g>
  <g>
    <path class="st8" d="M655 505.4c-.4-.9-1.1-1.5-1.9-1.8 1.5-1 2.1-2.8 1.3-4.5-.4-.9-1.1-1.5-1.9-1.8.8-1 1-2.4.5-3.7-.8-1.8-3-2.6-4.8-1.8l-.2.1c.3-.9.3-1.8-.1-2.7-.8-1.8-3-2.6-4.8-1.8l-10.6 4.9-20.4 7.5s.3-6.2 5.4-10.7c3.7-3.2-.1-7.8-.1-7.8L593.5 504c-2.2 2.3-5.1 3.7-8.3 3.8l4.3 18.9h28.7c2.1 0 4.1-.5 5.9-1.5l15.1-8.5 14.1-6.5c1.7-.9 2.5-3 1.7-4.8z"/>
    <path class="st11" d="M399.2 926.6l49.6-6.1 38.2 11.9c8.2 2.6 7.7 14-.8 15.4l-33 5.8c-2.3.4-4.6.2-6.8-.5l-7.7-2.6c-5.3-1.8-11.2-.2-14.6 4.1-3.2 4-8.6 5.7-13.8 4.3l-9.2-2.5c-8.2-2.2-12.3-11.2-8.3-18.4l6.4-11.4z"/>
    <path class="st8" d="M461.1 421.2l5.4 1.8c19.2 6.6 39.1-7.5 39.4-27.7l.3-24.9c.3-19.9-12.3-37.6-31.2-43.9l-2.3-.8c-25.2-8.4-51.4 10.1-51.8 36.8v1.7c-.3 25.6 15.9 48.7 40.2 57z"/>
    <path class="st11" d="M446.2 935.5l49.6-6.1 38.2 11.9c8.2 2.6 7.7 14-.8 15.4l-33 5.8c-2.3.4-4.6.2-6.8-.5l-7.7-2.6c-5.3-1.8-11.2-.2-14.6 4.1-3.2 4-8.6 5.7-13.8 4.3l-9.2-2.5c-8.2-2.2-12.3-11.2-8.3-18.4l6.4-11.4z"/>
    <path class="st1" d="M415.1 422.2l83.7 18.9c12.3 2.6 21 13.4 21 26v39c0 9.7 9.4 16.6 18.6 13.6l54.7-17.4c4.9-1.6 10.2-.3 13.9 3.4 6.4 6.4 5 17-2.8 21.5l-59.5 34.7c-9.1 5.3-19.4 8.1-29.8 8.1v36.7c0 14 3.2 27.7 9.2 40.3 6.1 12.6 9.2 26.3 9.2 40.3l4.9 231.3c0 17.4-14.1 31.4-31.4 31.4h-47.4c-3.9 0-7.7-1.6-10.5-4.4-5.8-5.8-15.2-5.8-21 0l-3 3c-2.8 2.8-6.6 4.4-10.5 4.4h-12.5c-18.1 0-32.3-15.4-30.9-33.5l19.7-295.6c.7-8.7 3.4-17.2 7.9-24.8 10.3-17.3 10.7-38.8 1.2-56.6l-3.8-12.7c-4.4-14.6-6.6-29.9-6.6-45.2V443c0-7.3 3.7-14.1 9.8-18 4.7-2.9 10.4-4 15.9-2.8z"/>
    <path d="M405.7 426.9v29.3c0 3.7 1.2 7.4 3.5 10.4l18.7 25c10.6 14.2 32.2 13.1 41.4-2l21.7-35.5c4.5-7.4 2.8-17-3.9-22.4v-49.3l19.2-12c.3-19.9-12.3-37.6-31.2-43.9l-2.3-.8c-25.2-8.4-51.4 10.1-51.8 36.8v50.1c0 4.1-3.5 7.4-7.6 7.2-4.2-.3-7.7 3-7.7 7.1z" fill="#d82d89"/>
  </g>
</svg>
