<svg xmlns="http://www.w3.org/2000/svg" width="203" height="48"><path d="M124.3 37h2.9v10.6h-2.9V37zm0-4h2.9v2.4h-2.9V33zm37.8-8.5c-.2.1-.4.1-.6.2-.2 0-.4.1-.7.1-.2 0-.5.1-.7.1-.2 0-.4.1-.6.2l-.6.3c-.2.1-.3.3-.4.4-.1.2-.1.4-.1.7 0 .3 0 .5.1.7.1.2.2.3.4.4.2.1.4.2.6.2.2 0 .4.1.7.1.6 0 1-.1 1.3-.3.3-.2.5-.4.7-.7.2-.3.2-.5.3-.8v-1.8c-.1 0-.2.1-.4.2zm-5.8-4.2c.3-.5.7-.8 1.2-1.1.5-.3 1-.5 1.6-.6.6-.1 1.2-.2 1.8-.2.5 0 1.1 0 1.6.1s1 .2 1.5.4.8.5 1.1.9c.3.4.4.9.4 1.6V27c0 .5 0 .9.1 1.4.1.4.2.8.3 1h-3c-.1-.2-.1-.3-.1-.5s-.1-.3-.1-.5c-.5.5-1 .8-1.6 1-.6.2-1.3.3-1.9.3-.5 0-1-.1-1.4-.2-.4-.1-.8-.3-1.2-.6-.4-.3-.6-.6-.8-1-.2-.4-.3-.9-.3-1.4 0-.6.1-1.1.3-1.5.2-.4.5-.7.8-.9.3-.2.7-.4 1.2-.5.4-.1.9-.2 1.3-.3.4-.1.9-.1 1.3-.2.4 0 .8-.1 1.1-.2.3-.1.6-.2.8-.4.2-.2.3-.4.3-.7 0-.3 0-.6-.2-.7-.1-.2-.2-.3-.4-.4-.2-.1-.4-.2-.6-.2h-.7c-.6 0-1 .1-1.4.4-.3.2-.5.7-.6 1.2h-2.9c.1-.7.2-1.3.5-1.8zm-2-1.5v2h-2.1V26c0 .5.1.8.2 1 .2.2.5.2 1 .2h.5c.2 0 .3 0 .4-.1v2.3c-.2 0-.5.1-.8.1h-.9c-.5 0-.9 0-1.3-.1s-.8-.2-1.1-.4c-.3-.2-.6-.4-.7-.8-.1-.4-.3-.8-.3-1.3v-6.3h-1.8v-2h1.8v-3.2h2.9v3.2l2.2.2zm-11.2 5.7c-.2.1-.4.1-.6.2-.2 0-.4.1-.7.1-.2 0-.5.1-.7.1-.2 0-.4.1-.6.2l-.6.3c-.2.1-.3.3-.4.4-.1.2-.1.4-.1.7 0 .3 0 .5.1.7.1.2.2.3.4.4.2.1.4.2.6.2.2 0 .4.1.7.1.6 0 1-.1 1.3-.3.3-.2.5-.4.7-.7.2-.3.2-.5.3-.8 0-.3.1-.5.1-.7v-1.1c-.2 0-.3.1-.5.2zm-5.8-4.2c.3-.5.7-.8 1.2-1.1.5-.3 1-.5 1.6-.6.6-.1 1.2-.2 1.8-.2.5 0 1.1 0 1.6.1s1 .2 1.5.4.8.5 1.1.9c.3.4.4.9.4 1.6V27c0 .5 0 .9.1 1.4.1.4.2.8.3 1h-3c-.1-.2-.1-.3-.1-.5s-.1-.3-.1-.5c-.5.5-1 .8-1.6 1-.6.2-1.3.3-1.9.3-.5 0-1-.1-1.4-.2-.4-.1-.8-.3-1.2-.6-.3-.3-.6-.6-.8-1-.2-.4-.3-.9-.3-1.4 0-.6.1-1.1.3-1.5.2-.4.5-.7.8-.9.3-.2.7-.4 1.2-.5.4-.1.9-.2 1.3-.3.4-.1.9-.1 1.3-.2.4 0 .8-.1 1.1-.2.3-.1.6-.2.8-.4.2-.2.3-.4.3-.7 0-.3-.1-.6-.2-.7-.1-.2-.2-.3-.4-.4-.2-.1-.4-.2-.6-.2h-.7c-.6 0-1 .1-1.4.4-.3.2-.5.7-.6 1.2h-2.9c0-.7.2-1.3.5-1.8zm-5.4 7.7c-.3.6-.8 1-1.3 1.2-.6.3-1.2.4-1.9.4-.8 0-1.5-.2-2.1-.5-.6-.3-1.1-.7-1.5-1.3-.4-.5-.7-1.1-.9-1.8-.2-.7-.3-1.4-.3-2.1 0-.7.1-1.4.3-2.1.2-.7.5-1.2.9-1.8.4-.5.9-.9 1.5-1.2.6-.3 1.3-.5 2.1-.5.6 0 1.2.1 1.8.4.6.3 1 .7 1.3 1.2v-5.3h2.9v14.7h-2.8V28zm-.1-5.2c-.1-.4-.2-.8-.4-1.1-.2-.3-.5-.6-.8-.7-.3-.2-.7-.3-1.2-.3s-.9.1-1.2.3c-.3.2-.6.4-.8.8-.2.3-.3.7-.4 1.1-.1.4-.1.8-.1 1.3 0 .4 0 .8.1 1.2.1.4.2.8.5 1.1.2.3.5.6.8.8.3.2.7.3 1.2.3s.9-.1 1.2-.3c.3-.2.6-.4.8-.8.2-.3.3-.7.4-1.1.1-.4.1-.8.1-1.3-.1-.5-.1-.9-.2-1.3zM191.1 37v2H189v5.3c0 .5.1.8.2 1 .2.2.5.2 1 .2h.5c.2 0 .3 0 .4-.1v2.3c-.2 0-.5.1-.8.1h-.9c-.5 0-.9 0-1.3-.1s-.8-.2-1.1-.4c-.3-.2-.6-.4-.7-.8-.2-.3-.3-.8-.3-1.3v-6.3h-1.8v-2h1.8v-3.2h2.9V37h2.2zM180 47.6v-1.5h-.1c-.4.6-.9 1.1-1.4 1.3-.6.3-1.2.4-1.8.4-.8 0-1.4-.1-1.9-.3-.5-.2-.9-.5-1.2-.9-.3-.4-.5-.8-.6-1.4-.1-.5-.2-1.1-.2-1.8V37h2.9v6c0 .9.1 1.5.4 2 .3.4.8.6 1.5.6.8 0 1.4-.2 1.7-.7.4-.5.5-1.3.5-2.3V37h2.9v10.6H180zM171.3 37v2h-2.1v5.3c0 .5.1.8.2 1 .2.2.5.2 1 .2h.5c.2 0 .3 0 .4-.1v2.3c-.2 0-.5.1-.8.1h-.9c-.5 0-.9 0-1.3-.1s-.8-.2-1.1-.4c-.3-.2-.6-.4-.7-.8-.2-.3-.3-.8-.3-1.3v-6.3h-1.8v-2h1.8v-3.2h2.9V37h2.2zM163 47.6h-3V37h2.9v10.6h.1zM160 33h2.9v2.4H160V33zm-1.9 4v2H156v5.3c0 .5.1.8.2 1 .2.2.5.2 1 .2h.5c.2 0 .3 0 .4-.1v2.3c-.2 0-.5.1-.8.1h-.9c-.5 0-.9 0-1.3-.1s-.8-.2-1.1-.4c-.3-.2-.5-.4-.7-.8-.2-.3-.3-.8-.3-1.3v-6.3h-1.8v-2h1.8v-3.2h2.9V37h2.2zm-14.4 8c.1.2.3.4.5.6.2.1.4.3.7.3.3.1.5.1.8.1.2 0 .4 0 .6-.1.2 0 .4-.1.6-.2.2-.1.3-.2.5-.4.1-.2.2-.4.2-.6 0-.4-.3-.8-.9-1-.6-.2-1.4-.4-2.4-.7l-1.2-.3c-.4-.1-.8-.3-1.1-.5-.3-.2-.6-.5-.8-.8-.2-.3-.3-.7-.3-1.2 0-.7.1-1.2.4-1.7.3-.4.6-.8 1.1-1 .4-.3.9-.4 1.5-.5.5-.1 1.1-.2 1.7-.2.6 0 1.1.1 1.7.2.5.1 1 .3 1.4.6.4.3.8.6 1.1 1 .3.4.4 1 .5 1.6h-2.8c0-.6-.3-.9-.6-1.1-.4-.2-.8-.3-1.4-.3h-.5c-.2 0-.4.1-.5.1-.2.1-.3.2-.4.3-.1.1-.2.3-.2.5 0 .3.1.5.3.6.2.2.4.3.8.4.3.1.7.2 1.1.3l1.2.3 1.2.3c.4.1.8.3 1.1.5.3.2.6.5.8.8.2.3.3.7.3 1.2 0 .7-.1 1.3-.4 1.8-.3.5-.6.9-1.1 1.1-.5.3-1 .5-1.5.6-.6.1-1.2.2-1.8.2-.6 0-1.2-.1-1.8-.2-.6-.1-1.1-.3-1.6-.6s-.8-.7-1.1-1.1c-.3-.5-.5-1.1-.5-1.8h2.8c-.2.4-.1.7 0 .9zm-11.6-8v1.5h.1c.4-.6.9-1.1 1.4-1.3.5-.2 1.2-.4 1.8-.4.8 0 1.4.1 1.9.3.5.2.9.5 1.2.9.3.4.5.8.6 1.4.1.5.2 1.1.2 1.8v6.5h-2.9v-6c0-.9-.1-1.5-.4-2-.3-.4-.8-.6-1.5-.6-.8 0-1.4.2-1.7.7-.4.5-.5 1.3-.5 2.3v5.6h-2.9V37h2.7zM163.9.3v1.5h.1c.4-.6.9-1.1 1.4-1.3.6-.3 1.2-.4 1.8-.4.8 0 1.4.1 1.9.3.5.2.9.5 1.2.9.3.4.5.8.6 1.4.1.5.2 1.1.2 1.8V11h-2.9V5c0-.9-.1-1.5-.4-2-.3-.4-.8-.6-1.5-.6-.8 0-1.4.2-1.7.7-.4.5-.5 1.3-.5 2.3V11h-2.9V.3h2.7zm-11.4 8.1c.4.4 1.1.6 1.9.6.6 0 1.1-.1 1.5-.4.4-.3.7-.6.8-.9h2.6c-.4 1.3-1 2.2-1.9 2.7-.9.5-1.9.8-3.1.8-.8 0-1.6-.1-2.3-.4-.7-.3-1.2-.6-1.7-1.1-.5-.5-.8-1.1-1.1-1.8-.3-.7-.4-1.4-.4-2.3 0-.8.1-1.5.4-2.2.3-.7.6-1.3 1.1-1.8.5-.5 1.1-.9 1.7-1.2.7-.3 1.4-.4 2.2-.4.9 0 1.7.2 2.4.5.7.4 1.2.8 1.7 1.4.4.6.7 1.3.9 2 .2.8.3 1.5.2 2.4h-7.7c.1 1 .3 1.7.8 2.1zm43.2 36.7c.4.4 1.1.6 1.9.6.6 0 1.1-.1 1.5-.4.4-.3.7-.6.8-.9h2.6c-.4 1.3-1 2.2-1.9 2.7-.8.5-1.9.8-3.1.8-.8 0-1.6-.1-2.3-.4-.7-.3-1.2-.6-1.7-1.1-.5-.5-.8-1.1-1.1-1.8-.3-.7-.4-1.4-.4-2.3 0-.8.1-1.5.4-2.2.3-.7.6-1.3 1.1-1.8.5-.5 1.1-.9 1.7-1.2.7-.3 1.4-.4 2.2-.4.9 0 1.7.2 2.4.5.7.4 1.2.8 1.7 1.4.4.6.7 1.3.9 2 .2.8.3 1.5.2 2.4H195c0 1 .3 1.6.7 2.1zm3.3-5.6c-.4-.4-.9-.6-1.6-.6-.5 0-.9.1-1.2.2-.3.2-.6.4-.7.6-.2.2-.3.5-.4.7-.1.3-.1.5-.1.7h4.7c-.1-.7-.3-1.2-.7-1.6zM155.8 2.8c-.4-.4-.9-.6-1.6-.6-.5 0-.9.1-1.2.2-.3.2-.6.4-.7.6-.2.2-.3.5-.4.7-.1.3-.1.5-.1.7h4.7c-.1-.6-.4-1.2-.7-1.6zM139.4.3v1.4c.4-.6.8-1 1.4-1.3.5-.3 1.2-.4 1.8-.4.8 0 1.6.2 2.2.5.6.3 1.1.7 1.5 1.3.4.5.7 1.1.9 1.8.2.7.3 1.4.3 2.2 0 .7-.1 1.4-.3 2.1-.2.7-.5 1.2-.9 1.7s-.9.9-1.5 1.2c-.6.3-1.3.5-2 .5s-1.3-.1-1.8-.4c-.6-.3-1-.7-1.4-1.2v5h-2.9V.3h2.7zm3.8 8.5c.3-.2.6-.4.8-.7.2-.3.3-.7.4-1.1.1-.4.1-.8.1-1.3s0-.8-.1-1.3c-.1-.4-.2-.8-.4-1.1-.2-.3-.5-.6-.8-.8-.3-.2-.7-.3-1.2-.3s-.9.1-1.2.3c-.3.2-.6.5-.8.8-.2.3-.3.7-.4 1.1-.1.4-.1.8-.1 1.3 0 .4 0 .8.1 1.3.1.4.2.8.4 1.1.2.3.5.6.8.7.3.2.7.3 1.2.3.4 0 .8-.1 1.2-.3zm-18.9-5.4c.3-.7.6-1.3 1.1-1.8.5-.5 1.1-.9 1.7-1.1.7-.3 1.4-.4 2.3-.4.8 0 1.6.1 2.3.4.7.3 1.3.6 1.7 1.1.5.5.8 1.1 1.1 1.8.3.7.4 1.5.4 2.3 0 .8-.1 1.6-.4 2.3-.3.7-.6 1.3-1.1 1.8-.5.5-1.1.9-1.7 1.1-.7.3-1.4.4-2.3.4-.8 0-1.6-.1-2.3-.4-.7-.3-1.2-.6-1.7-1.1-.5-.5-.9-1.1-1.1-1.8-.3-.7-.4-1.5-.4-2.3 0-.8.1-1.7.4-2.3zm2.7 3.5c.1.4.2.8.4 1.1.2.3.5.6.8.8.3.2.7.3 1.2.3s.9-.1 1.2-.3c.3-.2.6-.4.8-.8.2-.3.3-.7.4-1.1.1-.4.1-.8.1-1.2 0-.4 0-.8-.1-1.3-.1-.4-.2-.8-.4-1.1-.2-.3-.5-.6-.8-.8-.3-.2-.7-.3-1.2-.3s-.9.1-1.2.3c-.3.2-.6.5-.8.8-.2.3-.4.7-.4 1.1-.1.4-.1.8-.1 1.3-.1.4 0 .8.1 1.2zM112.8.4v47.2h-22V31.8c-3 9.8-11.7 15.8-23.2 15.8H47V31.9C43.7 41.3 34.8 48 24.3 48 11 48 .3 37.3.3 24S11 0 24.3 0C34.8 0 43.7 6.7 47 16.1V.4h20.6c11.5 0 20.2 6 23.2 15.8V.4h22z" /></svg>
